<mxfile host="app.diagrams.net" modified="2021-04-11T20:01:37.178Z" agent="5.0 (Windows NT 10.0; Win64; x64) AppleWebKit/537.36 (KHTML, like Gecko) Chrome/89.0.4389.114 Safari/537.36" etag="TX9Amq-_qw58wvv8AUNR" version="14.5.10" type="gitlab">
  <diagram id="C5RBs43oDa-KdzZeNtuy" name="Page-1">
    <mxGraphModel dx="2431" dy="1943" grid="1" gridSize="10" guides="1" tooltips="1" connect="1" arrows="1" fold="1" page="0" pageScale="1" pageWidth="827" pageHeight="1169" math="0" shadow="0">
      <root>
        <mxCell id="WIyWlLk6GJQsqaUBKTNV-0" />
        <mxCell id="WIyWlLk6GJQsqaUBKTNV-1" parent="WIyWlLk6GJQsqaUBKTNV-0" />
        <mxCell id="vL9LniRMVXf0b914oEBF-10" value="GameBoard" style="swimlane;fontStyle=1;align=center;verticalAlign=top;childLayout=stackLayout;horizontal=1;startSize=26;horizontalStack=0;resizeParent=1;resizeParentMax=0;resizeLast=0;collapsible=1;marginBottom=0;" vertex="1" parent="WIyWlLk6GJQsqaUBKTNV-1">
          <mxGeometry x="780" y="-220" width="260" height="438" as="geometry" />
        </mxCell>
        <mxCell id="vL9LniRMVXf0b914oEBF-16" value="- _board : Piece* [8][8]" style="text;strokeColor=none;fillColor=none;align=left;verticalAlign=top;spacingLeft=4;spacingRight=4;overflow=hidden;rotatable=0;points=[[0,0.5],[1,0.5]];portConstraint=eastwest;" vertex="1" parent="vL9LniRMVXf0b914oEBF-10">
          <mxGeometry y="26" width="260" height="24" as="geometry" />
        </mxCell>
        <mxCell id="vL9LniRMVXf0b914oEBF-17" value="- _isWhiteTurn : bool" style="text;strokeColor=none;fillColor=none;align=left;verticalAlign=top;spacingLeft=4;spacingRight=4;overflow=hidden;rotatable=0;points=[[0,0.5],[1,0.5]];portConstraint=eastwest;" vertex="1" parent="vL9LniRMVXf0b914oEBF-10">
          <mxGeometry y="50" width="260" height="28" as="geometry" />
        </mxCell>
        <mxCell id="vL9LniRMVXf0b914oEBF-19" value="- _whiteKingPlace : string" style="text;strokeColor=none;fillColor=none;align=left;verticalAlign=top;spacingLeft=4;spacingRight=4;overflow=hidden;rotatable=0;points=[[0,0.5],[1,0.5]];portConstraint=eastwest;" vertex="1" parent="vL9LniRMVXf0b914oEBF-10">
          <mxGeometry y="78" width="260" height="28" as="geometry" />
        </mxCell>
        <mxCell id="vL9LniRMVXf0b914oEBF-22" value="- _BlackKingPlace : string" style="text;strokeColor=none;fillColor=none;align=left;verticalAlign=top;spacingLeft=4;spacingRight=4;overflow=hidden;rotatable=0;points=[[0,0.5],[1,0.5]];portConstraint=eastwest;" vertex="1" parent="vL9LniRMVXf0b914oEBF-10">
          <mxGeometry y="106" width="260" height="28" as="geometry" />
        </mxCell>
        <mxCell id="vL9LniRMVXf0b914oEBF-12" value="" style="line;strokeWidth=1;fillColor=none;align=left;verticalAlign=middle;spacingTop=-1;spacingLeft=3;spacingRight=3;rotatable=0;labelPosition=right;points=[];portConstraint=eastwest;" vertex="1" parent="vL9LniRMVXf0b914oEBF-10">
          <mxGeometry y="134" width="260" height="8" as="geometry" />
        </mxCell>
        <mxCell id="vL9LniRMVXf0b914oEBF-13" value="+ Gameboard(): constructor" style="text;strokeColor=none;fillColor=none;align=left;verticalAlign=top;spacingLeft=4;spacingRight=4;overflow=hidden;rotatable=0;points=[[0,0.5],[1,0.5]];portConstraint=eastwest;" vertex="1" parent="vL9LniRMVXf0b914oEBF-10">
          <mxGeometry y="142" width="260" height="26" as="geometry" />
        </mxCell>
        <mxCell id="vL9LniRMVXf0b914oEBF-23" value="&lt;span style=&quot;color: rgb(0 , 0 , 0) ; font-family: &amp;#34;helvetica&amp;#34; ; font-size: 12px ; font-style: normal ; font-weight: 400 ; letter-spacing: normal ; text-align: left ; text-indent: 0px ; text-transform: none ; word-spacing: 0px ; background-color: rgb(248 , 249 , 250) ; display: inline ; float: none&quot;&gt;&amp;nbsp;+ ~Gameboard(): distructor&lt;/span&gt;" style="text;whiteSpace=wrap;html=1;" vertex="1" parent="vL9LniRMVXf0b914oEBF-10">
          <mxGeometry y="168" width="260" height="30" as="geometry" />
        </mxCell>
        <mxCell id="vL9LniRMVXf0b914oEBF-24" value="&lt;span style=&quot;color: rgb(0 , 0 , 0) ; font-family: &amp;#34;helvetica&amp;#34; ; font-size: 12px ; font-style: normal ; font-weight: 400 ; letter-spacing: normal ; text-align: left ; text-indent: 0px ; text-transform: none ; word-spacing: 0px ; background-color: rgb(248 , 249 , 250) ; display: inline ; float: none&quot;&gt;&amp;nbsp;+ eat(string): void&lt;br&gt;&lt;/span&gt;" style="text;whiteSpace=wrap;html=1;" vertex="1" parent="vL9LniRMVXf0b914oEBF-10">
          <mxGeometry y="198" width="260" height="30" as="geometry" />
        </mxCell>
        <mxCell id="vL9LniRMVXf0b914oEBF-25" value="&lt;span style=&quot;color: rgb(0 , 0 , 0) ; font-family: &amp;#34;helvetica&amp;#34; ; font-size: 12px ; font-style: normal ; font-weight: 400 ; letter-spacing: normal ; text-align: left ; text-indent: 0px ; text-transform: none ; word-spacing: 0px ; background-color: rgb(248 , 249 , 250) ; display: inline ; float: none&quot;&gt;&amp;nbsp;+ move(string): int&lt;br&gt;&lt;/span&gt;" style="text;whiteSpace=wrap;html=1;" vertex="1" parent="vL9LniRMVXf0b914oEBF-10">
          <mxGeometry y="228" width="260" height="30" as="geometry" />
        </mxCell>
        <mxCell id="vL9LniRMVXf0b914oEBF-27" value="&lt;span style=&quot;color: rgb(0 , 0 , 0) ; font-family: &amp;#34;helvetica&amp;#34; ; font-size: 12px ; font-style: normal ; font-weight: 400 ; letter-spacing: normal ; text-align: left ; text-indent: 0px ; text-transform: none ; word-spacing: 0px ; background-color: rgb(248 , 249 , 250) ; display: inline ; float: none&quot;&gt;&amp;nbsp;+ toStringBoard(): string&lt;br&gt;&lt;/span&gt;" style="text;whiteSpace=wrap;html=1;" vertex="1" parent="vL9LniRMVXf0b914oEBF-10">
          <mxGeometry y="258" width="260" height="30" as="geometry" />
        </mxCell>
        <mxCell id="vL9LniRMVXf0b914oEBF-29" value="&lt;span style=&quot;color: rgb(0 , 0 , 0) ; font-family: &amp;#34;helvetica&amp;#34; ; font-size: 12px ; font-style: normal ; font-weight: 400 ; letter-spacing: normal ; text-align: left ; text-indent: 0px ; text-transform: none ; word-spacing: 0px ; background-color: rgb(248 , 249 , 250) ; display: inline ; float: none&quot;&gt;&amp;nbsp;+&amp;nbsp;&lt;span style=&quot;font-family: monospace&quot;&gt;isThreatened&lt;/span&gt;(bool): bool&lt;/span&gt;" style="text;whiteSpace=wrap;html=1;" vertex="1" parent="vL9LniRMVXf0b914oEBF-10">
          <mxGeometry y="288" width="260" height="30" as="geometry" />
        </mxCell>
        <mxCell id="vL9LniRMVXf0b914oEBF-30" value="&lt;span style=&quot;color: rgb(0 , 0 , 0) ; font-family: &amp;#34;helvetica&amp;#34; ; font-size: 12px ; font-style: normal ; font-weight: 400 ; letter-spacing: normal ; text-align: left ; text-indent: 0px ; text-transform: none ; word-spacing: 0px ; background-color: rgb(248 , 249 , 250) ; display: inline ; float: none&quot;&gt;&amp;nbsp;-&amp;nbsp;&lt;span style=&quot;font-family: monospace&quot;&gt;initBoard&lt;/span&gt;(): void&lt;/span&gt;" style="text;whiteSpace=wrap;html=1;" vertex="1" parent="vL9LniRMVXf0b914oEBF-10">
          <mxGeometry y="318" width="260" height="30" as="geometry" />
        </mxCell>
        <mxCell id="vL9LniRMVXf0b914oEBF-31" value="&lt;span style=&quot;color: rgb(0 , 0 , 0) ; font-family: &amp;#34;helvetica&amp;#34; ; font-size: 12px ; font-style: normal ; font-weight: 400 ; letter-spacing: normal ; text-align: left ; text-indent: 0px ; text-transform: none ; word-spacing: 0px ; background-color: rgb(248 , 249 , 250) ; display: inline ; float: none&quot;&gt;&amp;nbsp;-&amp;nbsp;&lt;span style=&quot;font-family: monospace&quot;&gt;checkForEat&lt;/span&gt;(Piece*, Piece*): bool&lt;/span&gt;" style="text;whiteSpace=wrap;html=1;" vertex="1" parent="vL9LniRMVXf0b914oEBF-10">
          <mxGeometry y="348" width="260" height="30" as="geometry" />
        </mxCell>
        <mxCell id="vL9LniRMVXf0b914oEBF-32" value="&lt;span style=&quot;color: rgb(0 , 0 , 0) ; font-family: &amp;#34;helvetica&amp;#34; ; font-size: 12px ; font-style: normal ; font-weight: 400 ; letter-spacing: normal ; text-align: left ; text-indent: 0px ; text-transform: none ; word-spacing: 0px ; background-color: rgb(248 , 249 , 250) ; display: inline ; float: none&quot;&gt;&amp;nbsp;-&amp;nbsp;&lt;span style=&quot;font-family: monospace&quot;&gt;placeToPiece&lt;/span&gt;(string): Piece*&amp;amp;&lt;/span&gt;" style="text;whiteSpace=wrap;html=1;" vertex="1" parent="vL9LniRMVXf0b914oEBF-10">
          <mxGeometry y="378" width="260" height="30" as="geometry" />
        </mxCell>
        <mxCell id="vL9LniRMVXf0b914oEBF-33" value="&lt;span style=&quot;color: rgb(0 , 0 , 0) ; font-family: &amp;#34;helvetica&amp;#34; ; font-size: 12px ; font-style: normal ; font-weight: 400 ; letter-spacing: normal ; text-align: left ; text-indent: 0px ; text-transform: none ; word-spacing: 0px ; background-color: rgb(248 , 249 , 250) ; display: inline ; float: none&quot;&gt;&amp;nbsp;-&amp;nbsp;&lt;span style=&quot;font-family: monospace&quot;&gt;flipTurn&lt;/span&gt;(): void&lt;/span&gt;" style="text;whiteSpace=wrap;html=1;" vertex="1" parent="vL9LniRMVXf0b914oEBF-10">
          <mxGeometry y="408" width="260" height="30" as="geometry" />
        </mxCell>
        <mxCell id="vL9LniRMVXf0b914oEBF-74" style="edgeStyle=orthogonalEdgeStyle;rounded=0;orthogonalLoop=1;jettySize=auto;html=1;exitX=0.5;exitY=0;exitDx=0;exitDy=0;endArrow=diamond;endFill=1;" edge="1" parent="WIyWlLk6GJQsqaUBKTNV-1" source="vL9LniRMVXf0b914oEBF-34" target="vL9LniRMVXf0b914oEBF-16">
          <mxGeometry relative="1" as="geometry" />
        </mxCell>
        <mxCell id="vL9LniRMVXf0b914oEBF-34" value="Piece" style="swimlane;fontStyle=1;align=center;verticalAlign=top;childLayout=stackLayout;horizontal=1;startSize=26;horizontalStack=0;resizeParent=1;resizeParentMax=0;resizeLast=0;collapsible=1;marginBottom=0;" vertex="1" parent="WIyWlLk6GJQsqaUBKTNV-1">
          <mxGeometry x="340" y="90" width="190" height="250" as="geometry" />
        </mxCell>
        <mxCell id="vL9LniRMVXf0b914oEBF-35" value="# _isWhite: bool" style="text;strokeColor=none;fillColor=none;align=left;verticalAlign=top;spacingLeft=4;spacingRight=4;overflow=hidden;rotatable=0;points=[[0,0.5],[1,0.5]];portConstraint=eastwest;" vertex="1" parent="vL9LniRMVXf0b914oEBF-34">
          <mxGeometry y="26" width="190" height="26" as="geometry" />
        </mxCell>
        <mxCell id="vL9LniRMVXf0b914oEBF-40" value="# _position: int[2]" style="text;strokeColor=none;fillColor=none;align=left;verticalAlign=top;spacingLeft=4;spacingRight=4;overflow=hidden;rotatable=0;points=[[0,0.5],[1,0.5]];portConstraint=eastwest;" vertex="1" parent="vL9LniRMVXf0b914oEBF-34">
          <mxGeometry y="52" width="190" height="26" as="geometry" />
        </mxCell>
        <mxCell id="vL9LniRMVXf0b914oEBF-41" value="# _value: char" style="text;strokeColor=none;fillColor=none;align=left;verticalAlign=top;spacingLeft=4;spacingRight=4;overflow=hidden;rotatable=0;points=[[0,0.5],[1,0.5]];portConstraint=eastwest;" vertex="1" parent="vL9LniRMVXf0b914oEBF-34">
          <mxGeometry y="78" width="190" height="26" as="geometry" />
        </mxCell>
        <mxCell id="vL9LniRMVXf0b914oEBF-36" value="" style="line;strokeWidth=1;fillColor=none;align=left;verticalAlign=middle;spacingTop=-1;spacingLeft=3;spacingRight=3;rotatable=0;labelPosition=right;points=[];portConstraint=eastwest;" vertex="1" parent="vL9LniRMVXf0b914oEBF-34">
          <mxGeometry y="104" width="190" height="8" as="geometry" />
        </mxCell>
        <mxCell id="vL9LniRMVXf0b914oEBF-42" value="+ Piece(): constructor" style="text;strokeColor=none;fillColor=none;align=left;verticalAlign=top;spacingLeft=4;spacingRight=4;overflow=hidden;rotatable=0;points=[[0,0.5],[1,0.5]];portConstraint=eastwest;" vertex="1" parent="vL9LniRMVXf0b914oEBF-34">
          <mxGeometry y="112" width="190" height="26" as="geometry" />
        </mxCell>
        <mxCell id="vL9LniRMVXf0b914oEBF-43" value="&lt;span style=&quot;color: rgb(0 , 0 , 0) ; font-family: &amp;#34;helvetica&amp;#34; ; font-size: 12px ; font-style: normal ; font-weight: 400 ; letter-spacing: normal ; text-align: left ; text-indent: 0px ; text-transform: none ; word-spacing: 0px ; background-color: rgb(248 , 249 , 250) ; display: inline ; float: none&quot;&gt;&amp;nbsp;+ ~Piece(): distructor&lt;/span&gt;" style="text;whiteSpace=wrap;html=1;" vertex="1" parent="vL9LniRMVXf0b914oEBF-34">
          <mxGeometry y="138" width="190" height="30" as="geometry" />
        </mxCell>
        <mxCell id="vL9LniRMVXf0b914oEBF-99" value="+ isLegal(piece* [8][8], string): int" style="text;strokeColor=none;fillColor=none;align=left;verticalAlign=top;spacingLeft=4;spacingRight=4;overflow=hidden;rotatable=0;points=[[0,0.5],[1,0.5]];portConstraint=eastwest;" vertex="1" parent="vL9LniRMVXf0b914oEBF-34">
          <mxGeometry y="168" width="190" height="26" as="geometry" />
        </mxCell>
        <mxCell id="vL9LniRMVXf0b914oEBF-44" value="&lt;span style=&quot;color: rgb(0 , 0 , 0) ; font-family: &amp;#34;helvetica&amp;#34; ; font-size: 12px ; font-style: normal ; font-weight: 400 ; letter-spacing: normal ; text-align: left ; text-indent: 0px ; text-transform: none ; word-spacing: 0px ; background-color: rgb(248 , 249 , 250) ; display: inline ; float: none&quot;&gt;&amp;nbsp;+&amp;nbsp;&lt;span style=&quot;font-family: monospace&quot;&gt;isPieceWhite&lt;/span&gt;(): bool&lt;/span&gt;" style="text;whiteSpace=wrap;html=1;" vertex="1" parent="vL9LniRMVXf0b914oEBF-34">
          <mxGeometry y="194" width="190" height="30" as="geometry" />
        </mxCell>
        <mxCell id="vL9LniRMVXf0b914oEBF-45" value="+ gets and sets for propertites" style="text;strokeColor=none;fillColor=none;align=left;verticalAlign=top;spacingLeft=4;spacingRight=4;overflow=hidden;rotatable=0;points=[[0,0.5],[1,0.5]];portConstraint=eastwest;" vertex="1" parent="vL9LniRMVXf0b914oEBF-34">
          <mxGeometry y="224" width="190" height="26" as="geometry" />
        </mxCell>
        <mxCell id="vL9LniRMVXf0b914oEBF-85" style="edgeStyle=orthogonalEdgeStyle;rounded=0;orthogonalLoop=1;jettySize=auto;html=1;endArrow=block;endFill=0;exitX=0.5;exitY=0;exitDx=0;exitDy=0;" edge="1" parent="WIyWlLk6GJQsqaUBKTNV-1" source="vL9LniRMVXf0b914oEBF-46" target="vL9LniRMVXf0b914oEBF-34">
          <mxGeometry relative="1" as="geometry" />
        </mxCell>
        <mxCell id="vL9LniRMVXf0b914oEBF-46" value="Rook" style="swimlane;fontStyle=1;align=center;verticalAlign=top;childLayout=stackLayout;horizontal=1;startSize=26;horizontalStack=0;resizeParent=1;resizeParentMax=0;resizeLast=0;collapsible=1;marginBottom=0;" vertex="1" parent="WIyWlLk6GJQsqaUBKTNV-1">
          <mxGeometry x="-100" y="590" width="220" height="142" as="geometry" />
        </mxCell>
        <mxCell id="vL9LniRMVXf0b914oEBF-48" value="" style="line;strokeWidth=1;fillColor=none;align=left;verticalAlign=middle;spacingTop=-1;spacingLeft=3;spacingRight=3;rotatable=0;labelPosition=right;points=[];portConstraint=eastwest;" vertex="1" parent="vL9LniRMVXf0b914oEBF-46">
          <mxGeometry y="26" width="220" height="8" as="geometry" />
        </mxCell>
        <mxCell id="vL9LniRMVXf0b914oEBF-50" value="+ Rook(string, bool): constructor" style="text;strokeColor=none;fillColor=none;align=left;verticalAlign=top;spacingLeft=4;spacingRight=4;overflow=hidden;rotatable=0;points=[[0,0.5],[1,0.5]];portConstraint=eastwest;" vertex="1" parent="vL9LniRMVXf0b914oEBF-46">
          <mxGeometry y="34" width="220" height="26" as="geometry" />
        </mxCell>
        <mxCell id="vL9LniRMVXf0b914oEBF-51" value="&lt;span style=&quot;color: rgb(0 , 0 , 0) ; font-family: &amp;#34;helvetica&amp;#34; ; font-size: 12px ; font-style: normal ; font-weight: 400 ; letter-spacing: normal ; text-align: left ; text-indent: 0px ; text-transform: none ; word-spacing: 0px ; background-color: rgb(248 , 249 , 250) ; display: inline ; float: none&quot;&gt;&amp;nbsp;+ ~Rook(): distructor&lt;/span&gt;" style="text;whiteSpace=wrap;html=1;" vertex="1" parent="vL9LniRMVXf0b914oEBF-46">
          <mxGeometry y="60" width="220" height="30" as="geometry" />
        </mxCell>
        <mxCell id="vL9LniRMVXf0b914oEBF-103" value="+ isLegal(piece* [8][8], string): int" style="text;strokeColor=none;fillColor=none;align=left;verticalAlign=top;spacingLeft=4;spacingRight=4;overflow=hidden;rotatable=0;points=[[0,0.5],[1,0.5]];portConstraint=eastwest;" vertex="1" parent="vL9LniRMVXf0b914oEBF-46">
          <mxGeometry y="90" width="220" height="26" as="geometry" />
        </mxCell>
        <mxCell id="vL9LniRMVXf0b914oEBF-53" value="- inWay(piece*[8][8], string): bool" style="text;strokeColor=none;fillColor=none;align=left;verticalAlign=top;spacingLeft=4;spacingRight=4;overflow=hidden;rotatable=0;points=[[0,0.5],[1,0.5]];portConstraint=eastwest;" vertex="1" parent="vL9LniRMVXf0b914oEBF-46">
          <mxGeometry y="116" width="220" height="26" as="geometry" />
        </mxCell>
        <mxCell id="vL9LniRMVXf0b914oEBF-61" style="edgeStyle=orthogonalEdgeStyle;rounded=0;orthogonalLoop=1;jettySize=auto;html=1;endArrow=block;endFill=0;" edge="1" parent="WIyWlLk6GJQsqaUBKTNV-1" source="vL9LniRMVXf0b914oEBF-55" target="vL9LniRMVXf0b914oEBF-34">
          <mxGeometry relative="1" as="geometry" />
        </mxCell>
        <mxCell id="vL9LniRMVXf0b914oEBF-55" value="Knight" style="swimlane;fontStyle=1;align=center;verticalAlign=top;childLayout=stackLayout;horizontal=1;startSize=26;horizontalStack=0;resizeParent=1;resizeParentMax=0;resizeLast=0;collapsible=1;marginBottom=0;" vertex="1" parent="WIyWlLk6GJQsqaUBKTNV-1">
          <mxGeometry x="140" y="590" width="220" height="116" as="geometry" />
        </mxCell>
        <mxCell id="vL9LniRMVXf0b914oEBF-56" value="" style="line;strokeWidth=1;fillColor=none;align=left;verticalAlign=middle;spacingTop=-1;spacingLeft=3;spacingRight=3;rotatable=0;labelPosition=right;points=[];portConstraint=eastwest;" vertex="1" parent="vL9LniRMVXf0b914oEBF-55">
          <mxGeometry y="26" width="220" height="8" as="geometry" />
        </mxCell>
        <mxCell id="vL9LniRMVXf0b914oEBF-57" value="+ Knight(string, bool): constructor" style="text;strokeColor=none;fillColor=none;align=left;verticalAlign=top;spacingLeft=4;spacingRight=4;overflow=hidden;rotatable=0;points=[[0,0.5],[1,0.5]];portConstraint=eastwest;" vertex="1" parent="vL9LniRMVXf0b914oEBF-55">
          <mxGeometry y="34" width="220" height="26" as="geometry" />
        </mxCell>
        <mxCell id="vL9LniRMVXf0b914oEBF-58" value="&lt;span style=&quot;color: rgb(0 , 0 , 0) ; font-family: &amp;#34;helvetica&amp;#34; ; font-size: 12px ; font-style: normal ; letter-spacing: normal ; text-align: left ; text-indent: 0px ; text-transform: none ; word-spacing: 0px ; background-color: rgb(248 , 249 , 250) ; display: inline ; float: none&quot;&gt;&amp;nbsp;+ ~&lt;span style=&quot;font-family: &amp;#34;helvetica&amp;#34; ; text-align: center ; background-color: rgb(255 , 255 , 255)&quot;&gt;Knight&lt;/span&gt;(): distructor&lt;/span&gt;" style="text;whiteSpace=wrap;html=1;" vertex="1" parent="vL9LniRMVXf0b914oEBF-55">
          <mxGeometry y="60" width="220" height="30" as="geometry" />
        </mxCell>
        <mxCell id="vL9LniRMVXf0b914oEBF-104" value="+ isLegal(piece* [8][8], string): int" style="text;strokeColor=none;fillColor=none;align=left;verticalAlign=top;spacingLeft=4;spacingRight=4;overflow=hidden;rotatable=0;points=[[0,0.5],[1,0.5]];portConstraint=eastwest;" vertex="1" parent="vL9LniRMVXf0b914oEBF-55">
          <mxGeometry y="90" width="220" height="26" as="geometry" />
        </mxCell>
        <mxCell id="vL9LniRMVXf0b914oEBF-72" style="edgeStyle=orthogonalEdgeStyle;rounded=0;orthogonalLoop=1;jettySize=auto;html=1;endArrow=block;endFill=0;" edge="1" parent="WIyWlLk6GJQsqaUBKTNV-1" source="vL9LniRMVXf0b914oEBF-62" target="vL9LniRMVXf0b914oEBF-34">
          <mxGeometry relative="1" as="geometry" />
        </mxCell>
        <mxCell id="vL9LniRMVXf0b914oEBF-62" value="Queen" style="swimlane;fontStyle=1;align=center;verticalAlign=top;childLayout=stackLayout;horizontal=1;startSize=26;horizontalStack=0;resizeParent=1;resizeParentMax=0;resizeLast=0;collapsible=1;marginBottom=0;" vertex="1" parent="WIyWlLk6GJQsqaUBKTNV-1">
          <mxGeometry x="380" y="590" width="220" height="116" as="geometry" />
        </mxCell>
        <mxCell id="vL9LniRMVXf0b914oEBF-63" value="" style="line;strokeWidth=1;fillColor=none;align=left;verticalAlign=middle;spacingTop=-1;spacingLeft=3;spacingRight=3;rotatable=0;labelPosition=right;points=[];portConstraint=eastwest;" vertex="1" parent="vL9LniRMVXf0b914oEBF-62">
          <mxGeometry y="26" width="220" height="8" as="geometry" />
        </mxCell>
        <mxCell id="vL9LniRMVXf0b914oEBF-64" value="+ Queen(string, bool): constructor" style="text;strokeColor=none;fillColor=none;align=left;verticalAlign=top;spacingLeft=4;spacingRight=4;overflow=hidden;rotatable=0;points=[[0,0.5],[1,0.5]];portConstraint=eastwest;" vertex="1" parent="vL9LniRMVXf0b914oEBF-62">
          <mxGeometry y="34" width="220" height="26" as="geometry" />
        </mxCell>
        <mxCell id="vL9LniRMVXf0b914oEBF-65" value="&lt;span style=&quot;color: rgb(0 , 0 , 0) ; font-family: &amp;#34;helvetica&amp;#34; ; font-size: 12px ; font-style: normal ; letter-spacing: normal ; text-align: left ; text-indent: 0px ; text-transform: none ; word-spacing: 0px ; background-color: rgb(248 , 249 , 250) ; display: inline ; float: none&quot;&gt;&amp;nbsp;+ ~&lt;span style=&quot;font-family: &amp;#34;helvetica&amp;#34; ; text-align: center ; background-color: rgb(255 , 255 , 255)&quot;&gt;Queen&lt;/span&gt;(): distructor&lt;/span&gt;" style="text;whiteSpace=wrap;html=1;" vertex="1" parent="vL9LniRMVXf0b914oEBF-62">
          <mxGeometry y="60" width="220" height="30" as="geometry" />
        </mxCell>
        <mxCell id="vL9LniRMVXf0b914oEBF-105" value="+ isLegal(piece* [8][8], string): int" style="text;strokeColor=none;fillColor=none;align=left;verticalAlign=top;spacingLeft=4;spacingRight=4;overflow=hidden;rotatable=0;points=[[0,0.5],[1,0.5]];portConstraint=eastwest;" vertex="1" parent="vL9LniRMVXf0b914oEBF-62">
          <mxGeometry y="90" width="220" height="26" as="geometry" />
        </mxCell>
        <mxCell id="vL9LniRMVXf0b914oEBF-77" style="edgeStyle=orthogonalEdgeStyle;rounded=0;orthogonalLoop=1;jettySize=auto;html=1;exitX=0.5;exitY=0;exitDx=0;exitDy=0;endArrow=block;endFill=0;" edge="1" parent="WIyWlLk6GJQsqaUBKTNV-1" source="vL9LniRMVXf0b914oEBF-67" target="vL9LniRMVXf0b914oEBF-34">
          <mxGeometry relative="1" as="geometry" />
        </mxCell>
        <mxCell id="vL9LniRMVXf0b914oEBF-67" value="King" style="swimlane;fontStyle=1;align=center;verticalAlign=top;childLayout=stackLayout;horizontal=1;startSize=26;horizontalStack=0;resizeParent=1;resizeParentMax=0;resizeLast=0;collapsible=1;marginBottom=0;" vertex="1" parent="WIyWlLk6GJQsqaUBKTNV-1">
          <mxGeometry x="630" y="590" width="220" height="116" as="geometry" />
        </mxCell>
        <mxCell id="vL9LniRMVXf0b914oEBF-68" value="" style="line;strokeWidth=1;fillColor=none;align=left;verticalAlign=middle;spacingTop=-1;spacingLeft=3;spacingRight=3;rotatable=0;labelPosition=right;points=[];portConstraint=eastwest;" vertex="1" parent="vL9LniRMVXf0b914oEBF-67">
          <mxGeometry y="26" width="220" height="8" as="geometry" />
        </mxCell>
        <mxCell id="vL9LniRMVXf0b914oEBF-69" value="+ King(string, bool): constructor" style="text;strokeColor=none;fillColor=none;align=left;verticalAlign=top;spacingLeft=4;spacingRight=4;overflow=hidden;rotatable=0;points=[[0,0.5],[1,0.5]];portConstraint=eastwest;" vertex="1" parent="vL9LniRMVXf0b914oEBF-67">
          <mxGeometry y="34" width="220" height="26" as="geometry" />
        </mxCell>
        <mxCell id="vL9LniRMVXf0b914oEBF-70" value="&lt;span style=&quot;color: rgb(0 , 0 , 0) ; font-family: &amp;#34;helvetica&amp;#34; ; font-size: 12px ; font-style: normal ; letter-spacing: normal ; text-align: left ; text-indent: 0px ; text-transform: none ; word-spacing: 0px ; background-color: rgb(248 , 249 , 250) ; display: inline ; float: none&quot;&gt;&amp;nbsp;+ ~&lt;span style=&quot;font-family: &amp;#34;helvetica&amp;#34; ; text-align: center ; background-color: rgb(255 , 255 , 255)&quot;&gt;King&lt;/span&gt;(): distructor&lt;/span&gt;" style="text;whiteSpace=wrap;html=1;" vertex="1" parent="vL9LniRMVXf0b914oEBF-67">
          <mxGeometry y="60" width="220" height="30" as="geometry" />
        </mxCell>
        <mxCell id="vL9LniRMVXf0b914oEBF-76" value="+ isValid(piece*[8][8], string): bool" style="text;strokeColor=none;fillColor=none;align=left;verticalAlign=top;spacingLeft=4;spacingRight=4;overflow=hidden;rotatable=0;points=[[0,0.5],[1,0.5]];portConstraint=eastwest;" vertex="1" parent="vL9LniRMVXf0b914oEBF-67">
          <mxGeometry y="90" width="220" height="26" as="geometry" />
        </mxCell>
        <mxCell id="vL9LniRMVXf0b914oEBF-84" style="edgeStyle=orthogonalEdgeStyle;rounded=0;orthogonalLoop=1;jettySize=auto;html=1;endArrow=block;endFill=0;exitX=0.5;exitY=0;exitDx=0;exitDy=0;" edge="1" parent="WIyWlLk6GJQsqaUBKTNV-1" source="vL9LniRMVXf0b914oEBF-78" target="vL9LniRMVXf0b914oEBF-34">
          <mxGeometry relative="1" as="geometry" />
        </mxCell>
        <mxCell id="vL9LniRMVXf0b914oEBF-78" value="Pawn" style="swimlane;fontStyle=1;align=center;verticalAlign=top;childLayout=stackLayout;horizontal=1;startSize=26;horizontalStack=0;resizeParent=1;resizeParentMax=0;resizeLast=0;collapsible=1;marginBottom=0;" vertex="1" parent="WIyWlLk6GJQsqaUBKTNV-1">
          <mxGeometry x="870" y="590" width="220" height="116" as="geometry" />
        </mxCell>
        <mxCell id="vL9LniRMVXf0b914oEBF-79" value="" style="line;strokeWidth=1;fillColor=none;align=left;verticalAlign=middle;spacingTop=-1;spacingLeft=3;spacingRight=3;rotatable=0;labelPosition=right;points=[];portConstraint=eastwest;" vertex="1" parent="vL9LniRMVXf0b914oEBF-78">
          <mxGeometry y="26" width="220" height="8" as="geometry" />
        </mxCell>
        <mxCell id="vL9LniRMVXf0b914oEBF-80" value="+ Pawn(string, bool): constructor" style="text;strokeColor=none;fillColor=none;align=left;verticalAlign=top;spacingLeft=4;spacingRight=4;overflow=hidden;rotatable=0;points=[[0,0.5],[1,0.5]];portConstraint=eastwest;" vertex="1" parent="vL9LniRMVXf0b914oEBF-78">
          <mxGeometry y="34" width="220" height="26" as="geometry" />
        </mxCell>
        <mxCell id="vL9LniRMVXf0b914oEBF-81" value="&lt;span style=&quot;color: rgb(0 , 0 , 0) ; font-family: &amp;#34;helvetica&amp;#34; ; font-size: 12px ; font-style: normal ; letter-spacing: normal ; text-align: left ; text-indent: 0px ; text-transform: none ; word-spacing: 0px ; background-color: rgb(248 , 249 , 250) ; display: inline ; float: none&quot;&gt;&amp;nbsp;+ ~&lt;span style=&quot;font-family: &amp;#34;helvetica&amp;#34; ; text-align: center ; background-color: rgb(255 , 255 , 255)&quot;&gt;Pawn&lt;/span&gt;(): distructor&lt;/span&gt;" style="text;whiteSpace=wrap;html=1;" vertex="1" parent="vL9LniRMVXf0b914oEBF-78">
          <mxGeometry y="60" width="220" height="30" as="geometry" />
        </mxCell>
        <mxCell id="vL9LniRMVXf0b914oEBF-107" value="+ isLegal(piece* [8][8], string): int" style="text;strokeColor=none;fillColor=none;align=left;verticalAlign=top;spacingLeft=4;spacingRight=4;overflow=hidden;rotatable=0;points=[[0,0.5],[1,0.5]];portConstraint=eastwest;" vertex="1" parent="vL9LniRMVXf0b914oEBF-78">
          <mxGeometry y="90" width="220" height="26" as="geometry" />
        </mxCell>
        <mxCell id="vL9LniRMVXf0b914oEBF-93" style="edgeStyle=orthogonalEdgeStyle;rounded=0;orthogonalLoop=1;jettySize=auto;html=1;exitX=0.5;exitY=0;exitDx=0;exitDy=0;endArrow=block;endFill=0;" edge="1" parent="WIyWlLk6GJQsqaUBKTNV-1" source="vL9LniRMVXf0b914oEBF-87" target="vL9LniRMVXf0b914oEBF-34">
          <mxGeometry relative="1" as="geometry" />
        </mxCell>
        <mxCell id="vL9LniRMVXf0b914oEBF-87" value="NullPiece" style="swimlane;fontStyle=1;align=center;verticalAlign=top;childLayout=stackLayout;horizontal=1;startSize=26;horizontalStack=0;resizeParent=1;resizeParentMax=0;resizeLast=0;collapsible=1;marginBottom=0;" vertex="1" parent="WIyWlLk6GJQsqaUBKTNV-1">
          <mxGeometry x="1120" y="590" width="220" height="142" as="geometry" />
        </mxCell>
        <mxCell id="vL9LniRMVXf0b914oEBF-88" value="" style="line;strokeWidth=1;fillColor=none;align=left;verticalAlign=middle;spacingTop=-1;spacingLeft=3;spacingRight=3;rotatable=0;labelPosition=right;points=[];portConstraint=eastwest;" vertex="1" parent="vL9LniRMVXf0b914oEBF-87">
          <mxGeometry y="26" width="220" height="8" as="geometry" />
        </mxCell>
        <mxCell id="vL9LniRMVXf0b914oEBF-89" value="+ NullPiece(string, bool): constructor" style="text;strokeColor=none;fillColor=none;align=left;verticalAlign=top;spacingLeft=4;spacingRight=4;overflow=hidden;rotatable=0;points=[[0,0.5],[1,0.5]];portConstraint=eastwest;" vertex="1" parent="vL9LniRMVXf0b914oEBF-87">
          <mxGeometry y="34" width="220" height="26" as="geometry" />
        </mxCell>
        <mxCell id="vL9LniRMVXf0b914oEBF-92" value="+ NullPiece(Piece&amp;): constructor" style="text;strokeColor=none;fillColor=none;align=left;verticalAlign=top;spacingLeft=4;spacingRight=4;overflow=hidden;rotatable=0;points=[[0,0.5],[1,0.5]];portConstraint=eastwest;" vertex="1" parent="vL9LniRMVXf0b914oEBF-87">
          <mxGeometry y="60" width="220" height="26" as="geometry" />
        </mxCell>
        <mxCell id="vL9LniRMVXf0b914oEBF-90" value="&lt;span style=&quot;color: rgb(0 , 0 , 0) ; font-family: &amp;#34;helvetica&amp;#34; ; font-size: 12px ; font-style: normal ; letter-spacing: normal ; text-align: left ; text-indent: 0px ; text-transform: none ; word-spacing: 0px ; background-color: rgb(248 , 249 , 250) ; display: inline ; float: none&quot;&gt;&amp;nbsp;+ ~&lt;span style=&quot;font-family: &amp;#34;helvetica&amp;#34; ; text-align: center ; background-color: rgb(255 , 255 , 255)&quot;&gt;NullPiece&lt;/span&gt;(): distructor&lt;/span&gt;" style="text;whiteSpace=wrap;html=1;" vertex="1" parent="vL9LniRMVXf0b914oEBF-87">
          <mxGeometry y="86" width="220" height="30" as="geometry" />
        </mxCell>
        <mxCell id="vL9LniRMVXf0b914oEBF-108" value="+ isLegal(piece* [8][8], string): int" style="text;strokeColor=none;fillColor=none;align=left;verticalAlign=top;spacingLeft=4;spacingRight=4;overflow=hidden;rotatable=0;points=[[0,0.5],[1,0.5]];portConstraint=eastwest;" vertex="1" parent="vL9LniRMVXf0b914oEBF-87">
          <mxGeometry y="116" width="220" height="26" as="geometry" />
        </mxCell>
        <mxCell id="vL9LniRMVXf0b914oEBF-106" style="edgeStyle=orthogonalEdgeStyle;rounded=0;orthogonalLoop=1;jettySize=auto;html=1;endArrow=block;endFill=0;exitX=0.5;exitY=0;exitDx=0;exitDy=0;" edge="1" parent="WIyWlLk6GJQsqaUBKTNV-1" source="vL9LniRMVXf0b914oEBF-94" target="vL9LniRMVXf0b914oEBF-34">
          <mxGeometry relative="1" as="geometry" />
        </mxCell>
        <mxCell id="vL9LniRMVXf0b914oEBF-94" value="Bishop" style="swimlane;fontStyle=1;align=center;verticalAlign=top;childLayout=stackLayout;horizontal=1;startSize=26;horizontalStack=0;resizeParent=1;resizeParentMax=0;resizeLast=0;collapsible=1;marginBottom=0;" vertex="1" parent="WIyWlLk6GJQsqaUBKTNV-1">
          <mxGeometry x="-340" y="590" width="220" height="116" as="geometry" />
        </mxCell>
        <mxCell id="vL9LniRMVXf0b914oEBF-95" value="" style="line;strokeWidth=1;fillColor=none;align=left;verticalAlign=middle;spacingTop=-1;spacingLeft=3;spacingRight=3;rotatable=0;labelPosition=right;points=[];portConstraint=eastwest;" vertex="1" parent="vL9LniRMVXf0b914oEBF-94">
          <mxGeometry y="26" width="220" height="8" as="geometry" />
        </mxCell>
        <mxCell id="vL9LniRMVXf0b914oEBF-96" value="+ Bishop(string, bool): constructor" style="text;strokeColor=none;fillColor=none;align=left;verticalAlign=top;spacingLeft=4;spacingRight=4;overflow=hidden;rotatable=0;points=[[0,0.5],[1,0.5]];portConstraint=eastwest;" vertex="1" parent="vL9LniRMVXf0b914oEBF-94">
          <mxGeometry y="34" width="220" height="26" as="geometry" />
        </mxCell>
        <mxCell id="vL9LniRMVXf0b914oEBF-102" value="+ isLegal(piece* [8][8], string): int" style="text;strokeColor=none;fillColor=none;align=left;verticalAlign=top;spacingLeft=4;spacingRight=4;overflow=hidden;rotatable=0;points=[[0,0.5],[1,0.5]];portConstraint=eastwest;" vertex="1" parent="vL9LniRMVXf0b914oEBF-94">
          <mxGeometry y="60" width="220" height="26" as="geometry" />
        </mxCell>
        <mxCell id="vL9LniRMVXf0b914oEBF-97" value="&lt;span style=&quot;color: rgb(0 , 0 , 0) ; font-family: &amp;#34;helvetica&amp;#34; ; font-size: 12px ; font-style: normal ; letter-spacing: normal ; text-align: left ; text-indent: 0px ; text-transform: none ; word-spacing: 0px ; background-color: rgb(248 , 249 , 250) ; display: inline ; float: none&quot;&gt;&amp;nbsp;+ ~&lt;span style=&quot;font-family: &amp;#34;helvetica&amp;#34; ; text-align: center ; background-color: rgb(255 , 255 , 255)&quot;&gt;Bishop&lt;/span&gt;(): distructor&lt;/span&gt;" style="text;whiteSpace=wrap;html=1;" vertex="1" parent="vL9LniRMVXf0b914oEBF-94">
          <mxGeometry y="86" width="220" height="30" as="geometry" />
        </mxCell>
        <mxCell id="vL9LniRMVXf0b914oEBF-110" style="edgeStyle=orthogonalEdgeStyle;rounded=0;orthogonalLoop=1;jettySize=auto;html=1;exitX=0.5;exitY=1;exitDx=0;exitDy=0;entryX=0.5;entryY=0;entryDx=0;entryDy=0;endArrow=openThin;endFill=0;" edge="1" parent="WIyWlLk6GJQsqaUBKTNV-1" source="vL9LniRMVXf0b914oEBF-109" target="vL9LniRMVXf0b914oEBF-10">
          <mxGeometry relative="1" as="geometry" />
        </mxCell>
        <mxCell id="vL9LniRMVXf0b914oEBF-112" style="edgeStyle=orthogonalEdgeStyle;rounded=0;orthogonalLoop=1;jettySize=auto;html=1;entryX=0.5;entryY=1;entryDx=0;entryDy=0;endArrow=openThin;endFill=0;" edge="1" parent="WIyWlLk6GJQsqaUBKTNV-1" source="vL9LniRMVXf0b914oEBF-109" target="vL9LniRMVXf0b914oEBF-111">
          <mxGeometry relative="1" as="geometry" />
        </mxCell>
        <mxCell id="vL9LniRMVXf0b914oEBF-109" value="pipe" style="html=1;" vertex="1" parent="WIyWlLk6GJQsqaUBKTNV-1">
          <mxGeometry x="855" y="-340" width="110" height="50" as="geometry" />
        </mxCell>
        <mxCell id="vL9LniRMVXf0b914oEBF-111" value="Frontend" style="html=1;" vertex="1" parent="WIyWlLk6GJQsqaUBKTNV-1">
          <mxGeometry x="855" y="-470" width="110" height="50" as="geometry" />
        </mxCell>
        <mxCell id="vL9LniRMVXf0b914oEBF-114" value="&lt;h1 style=&quot;font-size: 50px&quot;&gt;didn&#39;t have to fix much only add to methods&amp;nbsp;&lt;/h1&gt;" style="text;html=1;strokeColor=none;fillColor=none;spacing=5;spacingTop=-20;whiteSpace=wrap;overflow=hidden;rounded=0;" vertex="1" parent="WIyWlLk6GJQsqaUBKTNV-1">
          <mxGeometry x="-300" y="-50" width="530" height="220" as="geometry" />
        </mxCell>
      </root>
    </mxGraphModel>
  </diagram>
</mxfile>
